# xmcd
#
# Track frame offsets:
#  150
#  19962
#  35525
#  53887
#  67597
#  83300
#  98042
#  116182
#  131870
#  147015
#
# Disc length: 2230 seconds
#
# Revision: 7
# Processed by: cddbd v1.5.2PL0 Copyright (c) Steve Scherf et al.
# Submitted via: AltoMP3_Maker 3.0
#
DISCID=7e08b40a
DTITLE=Paolo Conte - Jimmy, ballando
DYEAR=1987
DGENRE=Italien Liedermacher
TTITLE0=Jimmy, ballando
TTITLE1=Anni
TTITLE2=Spassiunatamente
TTITLE3=Non sense
TTITLE4=Les tam-tam du paradis
TTITLE5=Amada mia
TTITLE6=Recitando
TTITLE7=Gratis
TTITLE8=Troppo difficile
TTITLE9=Midnight's knock out
EXTD=
EXTT0=
EXTT1=
EXTT2=
EXTT3=
EXTT4=
EXTT5=
EXTT6=
EXTT7=
EXTT8=
EXTT9=
PLAYORDER=
